<?xml version="1.0" standalone="no"?>
<!DOCTYPE svg PUBLIC "-//W3C//DTD SVG 20010904//EN"
 "http://www.w3.org/TR/2001/REC-SVG-20010904/DTD/svg10.dtd">
<svg version="1.0" xmlns="http://www.w3.org/2000/svg"
 width="520.000000pt" height="520.000000pt" viewBox="0 0 520.000000 520.000000"
 preserveAspectRatio="xMidYMid meet">
<metadata>
Created by potrace 1.11, written by Peter Selinger 2001-2013
</metadata>
<g transform="translate(0.000000,520.000000) scale(0.100000,-0.100000)"
fill="#000000" stroke="none">
<path d="M796 5174 c-210 -41 -374 -131 -521 -285 -125 -131 -211 -283 -246
-435 -6 -27 -14 -58 -17 -69 -4 -11 -8 -801 -9 -1755 -2 -1902 -5 -1822 57
-1993 46 -127 119 -237 229 -348 140 -139 271 -215 456 -262 79 -21 98 -21
1815 -24 1867 -2 1821 -3 1972 48 138 47 265 129 376 241 126 128 204 261 254
433 l23 80 2 1765 c2 1665 1 1770 -16 1850 -45 210 -147 380 -324 537 -78 69
-148 113 -254 158 -171 74 -18 69 -1973 71 -1449 2 -1767 0 -1824 -12z m2809
-906 c67 -35 626 -593 663 -663 24 -44 27 -62 27 -145 0 -131 -14 -155 -229
-369 l-172 -172 -487 488 -488 487 158 159 c226 226 265 250 404 243 55 -3 89
-11 124 -28z m-846 -2484 l-920 -920 -487 0 -487 1 -1 485 -2 485 922 922 921
923 487 -487 488 -488 -921 -921z"/>
<path d="M2705 3210 c-34 -13 -1055 -1041 -1055 -1062 0 -21 42 -68 62 -68 7
0 24 8 38 18 39 27 1012 1004 1026 1030 6 13 10 31 7 41 -6 25 -54 50 -78 41z"/>
<path d="M1273 1785 l-83 -83 0 -91 c0 -50 3 -91 8 -92 4 0 76 -1 159 -2 129
-1 154 -3 157 -16 2 -9 4 -74 4 -146 0 -71 1 -138 1 -147 1 -16 12 -18 93 -18
l91 0 88 88 88 88 -253 252 c-138 139 -256 252 -261 251 -6 0 -47 -38 -92 -84z"/>
</g>
</svg>
